# xmcd CD database file generated by OrangeCD 5.2
#
# Track frame offsets:
#	150
#	16341
#	40634
#	51457
#	68124
#	89215
#	120151
#	139038
#	157085
#	175275
#	196537
#	215975
#	257461
#	279263
#	315467
#	331014
#
# Disc length: 4698 seconds
#
# Revision: 0
# Processed by: cddbd v1.5.1PL2 Copyright (c) Steve Scherf et al.
# Submitted via: OrangeCD 5.2
#
DISCID=dd125810
DTITLE=Stevie Ray Vaughan and Double Trouble - Greatest hits BOOTLEG
DYEAR=1900
DGENRE=
TTITLE0=Taxman
TTITLE1=Texas Flood
TTITLE2=The House is Rockin'
TTITLE3=Pride and Joy
TTITLE4=Tightrope
TTITLE5=Little Wing
TTITLE6=Crossfire
TTITLE7=Change it
TTITLE8=Cold Shot
TTITLE9=Couldn't stand the weather
TTITLE10=Life Without You
TTITLE11=Tin Pan Alley
TTITLE12=Leave my Girl Alone (Live)
TTITLE13=Voodoo Child (Slight Return)
TTITLE14=Testify
TTITLE15=Superstition (Live)
EXTD=
EXTT0=
EXTT1=
EXTT2=
EXTT3=
EXTT4=
EXTT5=
EXTT6=
EXTT7=
EXTT8=
EXTT9=
EXTT10=
EXTT11=
EXTT12=
EXTT13=
EXTT14=
EXTT15=
PLAYORDER=
